<svg viewBox="0 0 240 52" xmlns="http://www.w3.org/2000/svg">
<path d="M59.2163 32.5786V28.3137L56.8388 25.985L59.2303 27.3378V20.2281L50.3323 30.2163L47.6113 33.4222L51.3615 31.0116L46.9352 35.6512L46.2931 38H44.3848H40.4802H33.5049L40.4802 36.5327V33.9956V27.5777V11.4943L33.7795 21.7348H36.0542L32.6121 29.8674L29.3541 31.4939L32.1196 32.8199L31.2612 34.3138L28.935 38H25.2665H24.4466H14.3859L24.4466 37.253V33.2797L24.5119 26.2531L21.4236 26.705L24.5886 24.9879L24.6814 20.2594L17.9196 27.2773L18.288 28.9643L14.1075 32.278L16.0133 31.735L9.76091 38H6.27066H5.51648H7.88231e-07L6.36248 36.1088L9.55836 28.9632L13.1242 29.6868L25.2962 16.0721L30.4598 25.7102L32.3042 17.518L39.5581 8H42.3856L45.4529 16.2528L49.3375 18.7306L50.8526 25.9356L59.2303 17.3978L62.1637 20.1666L68.4511 33.5421L73 38H61.1676H59.7997H59.2303H50.287L59.2303 37.0353V36.0559L56.1492 34.3138L59.2163 32.5786Z"/>
<path d="M120.402 13.802L113.534 37.5H110.066L104.558 18.426L98.846 37.5L95.412 37.534L88.782 13.802H92.08L97.248 33.896L102.96 13.802H106.428L111.868 33.828L117.07 13.802H120.402ZM131.914 37.806C130.169 37.806 128.582 37.4093 127.154 36.616C125.749 35.8227 124.638 34.7007 123.822 33.25C123.029 31.7767 122.632 30.0767 122.632 28.15C122.632 26.246 123.04 24.5687 123.856 23.118C124.695 21.6447 125.828 20.5227 127.256 19.752C128.684 18.9587 130.282 18.562 132.05 18.562C133.818 18.562 135.416 18.9587 136.844 19.752C138.272 20.5227 139.394 21.6333 140.21 23.084C141.049 24.5347 141.468 26.2233 141.468 28.15C141.468 30.0767 141.037 31.7767 140.176 33.25C139.337 34.7007 138.193 35.8227 136.742 36.616C135.291 37.4093 133.682 37.806 131.914 37.806ZM131.914 35.086C133.025 35.086 134.067 34.8253 135.042 34.304C136.017 33.7827 136.799 33.0007 137.388 31.958C138 30.9153 138.306 29.646 138.306 28.15C138.306 26.654 138.011 25.3847 137.422 24.342C136.833 23.2993 136.062 22.5287 135.11 22.03C134.158 21.5087 133.127 21.248 132.016 21.248C130.883 21.248 129.84 21.5087 128.888 22.03C127.959 22.5287 127.211 23.2993 126.644 24.342C126.077 25.3847 125.794 26.654 125.794 28.15C125.794 29.6687 126.066 30.9493 126.61 31.992C127.177 33.0347 127.925 33.8167 128.854 34.338C129.783 34.8367 130.803 35.086 131.914 35.086ZM154.614 18.528C156.881 18.528 158.717 19.2193 160.122 20.602C161.527 21.962 162.23 23.934 162.23 26.518V37.5H159.17V26.96C159.17 25.1013 158.705 23.6847 157.776 22.71C156.847 21.7127 155.577 21.214 153.968 21.214C152.336 21.214 151.033 21.724 150.058 22.744C149.106 23.764 148.63 25.2487 148.63 27.198V37.5H145.536V18.868H148.63V21.52C149.242 20.568 150.069 19.8313 151.112 19.31C152.177 18.7887 153.345 18.528 154.614 18.528ZM166.128 28.116C166.128 26.212 166.513 24.546 167.284 23.118C168.055 21.6673 169.109 20.5453 170.446 19.752C171.806 18.9587 173.325 18.562 175.002 18.562C176.453 18.562 177.801 18.902 179.048 19.582C180.295 20.2393 181.247 21.112 181.904 22.2V12.34H185.032V37.5H181.904V33.998C181.292 35.1087 180.385 36.0267 179.184 36.752C177.983 37.4547 176.577 37.806 174.968 37.806C173.313 37.806 171.806 37.398 170.446 36.582C169.109 35.766 168.055 34.6213 167.284 33.148C166.513 31.6747 166.128 29.9973 166.128 28.116ZM181.904 28.15C181.904 26.7447 181.621 25.5207 181.054 24.478C180.487 23.4353 179.717 22.642 178.742 22.098C177.79 21.5313 176.736 21.248 175.58 21.248C174.424 21.248 173.37 21.52 172.418 22.064C171.466 22.608 170.707 23.4013 170.14 24.444C169.573 25.4867 169.29 26.7107 169.29 28.116C169.29 29.544 169.573 30.7907 170.14 31.856C170.707 32.8987 171.466 33.7033 172.418 34.27C173.37 34.814 174.424 35.086 175.58 35.086C176.736 35.086 177.79 34.814 178.742 34.27C179.717 33.7033 180.487 32.8987 181.054 31.856C181.621 30.7907 181.904 29.5553 181.904 28.15ZM207.261 27.47C207.261 28.0593 207.227 28.6827 207.159 29.34H192.267C192.38 31.176 193.003 32.6153 194.137 33.658C195.293 34.678 196.687 35.188 198.319 35.188C199.656 35.188 200.767 34.882 201.651 34.27C202.557 33.6353 203.192 32.7967 203.555 31.754H206.887C206.388 33.5447 205.391 35.0067 203.895 36.14C202.399 37.2507 200.54 37.806 198.319 37.806C196.551 37.806 194.964 37.4093 193.559 36.616C192.176 35.8227 191.088 34.7007 190.295 33.25C189.501 31.7767 189.105 30.0767 189.105 28.15C189.105 26.2233 189.49 24.5347 190.261 23.084C191.031 21.6333 192.108 20.5227 193.491 19.752C194.896 18.9587 196.505 18.562 198.319 18.562C200.087 18.562 201.651 18.9473 203.011 19.718C204.371 20.4887 205.413 21.554 206.139 22.914C206.887 24.2513 207.261 25.77 207.261 27.47ZM204.065 26.824C204.065 25.6453 203.804 24.6367 203.283 23.798C202.761 22.9367 202.047 22.2907 201.141 21.86C200.257 21.4067 199.271 21.18 198.183 21.18C196.619 21.18 195.281 21.6787 194.171 22.676C193.083 23.6733 192.459 25.056 192.301 26.824H204.065ZM214.439 21.894C214.983 20.8287 215.753 20.0013 216.751 19.412C217.771 18.8227 219.006 18.528 220.457 18.528V21.724H219.641C216.173 21.724 214.439 23.6053 214.439 27.368V37.5H211.345V18.868H214.439V21.894ZM230.624 37.806C229.196 37.806 227.915 37.568 226.782 37.092C225.649 36.5933 224.753 35.9133 224.096 35.052C223.439 34.168 223.076 33.1593 223.008 32.026H226.204C226.295 32.9553 226.725 33.7147 227.496 34.304C228.289 34.8933 229.321 35.188 230.59 35.188C231.769 35.188 232.698 34.9273 233.378 34.406C234.058 33.8847 234.398 33.2273 234.398 32.434C234.398 31.618 234.035 31.0173 233.31 30.632C232.585 30.224 231.463 29.8273 229.944 29.442C228.561 29.0793 227.428 28.7167 226.544 28.354C225.683 27.9687 224.935 27.4133 224.3 26.688C223.688 25.94 223.382 24.9653 223.382 23.764C223.382 22.812 223.665 21.9393 224.232 21.146C224.799 20.3527 225.603 19.7293 226.646 19.276C227.689 18.8 228.879 18.562 230.216 18.562C232.279 18.562 233.945 19.0833 235.214 20.126C236.483 21.1687 237.163 22.5967 237.254 24.41H234.16C234.092 23.4353 233.695 22.6533 232.97 22.064C232.267 21.4747 231.315 21.18 230.114 21.18C229.003 21.18 228.119 21.418 227.462 21.894C226.805 22.37 226.476 22.9933 226.476 23.764C226.476 24.376 226.669 24.886 227.054 25.294C227.462 25.6793 227.961 25.9967 228.55 26.246C229.162 26.4727 230.001 26.7333 231.066 27.028C232.403 27.3907 233.491 27.7533 234.33 28.116C235.169 28.456 235.883 28.9773 236.472 29.68C237.084 30.3827 237.401 31.3007 237.424 32.434C237.424 33.454 237.141 34.372 236.574 35.188C236.007 36.004 235.203 36.65 234.16 37.126C233.14 37.5793 231.961 37.806 230.624 37.806Z"/>
</svg>
